# xmcd
#
# Track frame offsets: 
#        150
#        13342
#        27683
#        42381
#        54814
#        72237
#        90508
#        106594
#        122057
#        135189
#        154646
#
# Disc length: 2246 seconds
#
# Revision: 0
# Processed by: cddbd v1.5.2PL0 Copyright (c) Steve Scherf et al.
# Submitted via: ExactAudioCopy v1.0b3
#
DISCID=8408c40b
DTITLE=Alison Krauss - Windy City
DYEAR=2017
DGENRE=Acoustic
TTITLE0=Losing You
TTITLE1=It's Goodbye And So Long To You
TTITLE2=Windy City
TTITLE3=I Never Cared For You
TTITLE4=River In The Rain
TTITLE5=Dream Of Me
TTITLE6=Gentle On My Mind
TTITLE7=All Alone I Am
TTITLE8=Poison Love
TTITLE9=You Don't Know Me
TTITLE10=Make The World Go Away
EXTD=
EXTT0=
EXTT1=
EXTT2=
EXTT3=
EXTT4=
EXTT5=
EXTT6=
EXTT7=
EXTT8=
EXTT9=
EXTT10=
PLAYORDER=
